<svg xmlns="http://www.w3.org/2000/svg" xmlns:xlink="http://www.w3.org/1999/xlink" width="696" height="493" viewBox="0 0 696 493">
  <defs>
    <linearGradient id="linear-gradient" x1="27.65" y1="486.44" x2="28.26" y2="485.02" gradientTransform="matrix(65.76, 0, 0, -65.73, -1757.07, 32054.22)" gradientUnits="userSpaceOnUse">
      <stop offset="0" stop-color="#fad961"/>
      <stop offset="1" stop-color="#ff52c1"/>
    </linearGradient>
    <linearGradient id="linear-gradient-2" x1="27.93" y1="486.21" x2="27.93" y2="485.21" gradientTransform="matrix(61.65, 0, 0, -61.63, -1641.99, 30150.85)" gradientUnits="userSpaceOnUse">
      <stop offset="0" stop-color="#00c7fa"/>
      <stop offset="1" stop-color="#007dfa"/>
    </linearGradient>
    <linearGradient id="linear-gradient-3" x1="27.67" y1="486.18" x2="28.28" y2="485.07" gradientTransform="matrix(61.65, 0, 0, -61.63, -1641.99, 30248.77)" gradientUnits="userSpaceOnUse">
      <stop offset="0" stop-color="#ff52c1"/>
      <stop offset="1" stop-color="#9952ff"/>
    </linearGradient>
    <linearGradient id="linear-gradient-4" x1="26.48" y1="486.87" x2="27.09" y2="485.45" gradientTransform="matrix(20.55, 0, 0, -20.54, -41.75, 10212.78)" xlink:href="#linear-gradient"/>
    <linearGradient id="linear-gradient-5" x1="26.48" y1="486.87" x2="27.09" y2="485.45" gradientTransform="matrix(20.55, 0, 0, -20.54, -41.75, 10307.28)" xlink:href="#linear-gradient"/>
    <linearGradient id="linear-gradient-6" x1="26.8" y1="486.63" x2="26.8" y2="485.63" gradientTransform="matrix(20.55, 0, 0, -20.54, -41.75, 10244.28)" xlink:href="#linear-gradient-2"/>
    <linearGradient id="linear-gradient-7" x1="26.8" y1="486.63" x2="26.8" y2="485.63" gradientTransform="matrix(20.55, 0, 0, -20.54, -41.75, 10338.77)" xlink:href="#linear-gradient-2"/>
    <linearGradient id="linear-gradient-8" x1="26.54" y1="486.61" x2="27.15" y2="485.49" gradientTransform="matrix(20.55, 0, 0, -20.54, -41.75, 10275.78)" xlink:href="#linear-gradient-3"/>
    <linearGradient id="linear-gradient-9" x1="26.54" y1="486.61" x2="27.15" y2="485.49" gradientTransform="matrix(20.55, 0, 0, -20.54, -41.75, 10370.27)" xlink:href="#linear-gradient-3"/>
    <linearGradient id="linear-gradient-10" x1="26.48" y1="486.87" x2="27.09" y2="485.45" gradientTransform="matrix(20.55, 0, 0, -20.54, -41.75, 10401.77)" xlink:href="#linear-gradient"/>
    <linearGradient id="linear-gradient-11" x1="26.8" y1="486.63" x2="26.8" y2="485.63" gradientTransform="matrix(20.55, 0, 0, -20.54, -41.75, 10433.26)" xlink:href="#linear-gradient-2"/>
  </defs>
  <g id="Layer_2" data-name="Layer 2">
    <g id="Layer_1-2" data-name="Layer 1">
      <g>
        <g>
          <rect id="b" width="657.64" height="410.83" rx="13.7"/>
          <rect id="b-2" data-name="b" width="657.64" height="410.83" rx="13.7" fill="#fff"/>
          <path id="d" d="M13.7,0H643.94a13.7,13.7,0,0,1,13.7,13.7V43.82H0V13.7A13.7,13.7,0,0,1,13.7,0Z" fill-rule="evenodd"/>
          <path id="d-2" data-name="d" d="M13.7,0H643.94a13.7,13.7,0,0,1,13.7,13.7V43.82H0V13.7A13.7,13.7,0,0,1,13.7,0Z" fill="#00252e" fill-rule="evenodd"/>
          <path d="M52.75,13.69H182.91a3.43,3.43,0,0,1,3.43,3.43V26.7a3.42,3.42,0,0,1-3.42,3.42H52.75a3.42,3.42,0,0,1-3.42-3.42V17.12A3.42,3.42,0,0,1,52.75,13.69Z" fill="#e1e8ee"/>
          <g>
            <rect x="591.87" y="15.06" width="21.92" height="2.74" rx="1.37" fill="#d8d8d8"/>
            <rect x="591.87" y="20.54" width="21.92" height="2.74" rx="1.37" fill="#d8d8d8"/>
            <rect x="591.87" y="26.02" width="21.92" height="2.74" rx="1.37" fill="#d8d8d8"/>
          </g>
          <g>
            <ellipse cx="82.21" cy="127.36" rx="32.88" ry="32.87" fill="url(#linear-gradient)"/>
            <g>
              <rect x="153.45" y="102.71" width="78.78" height="10.96" rx="2.06" fill="#e1e8ee"/>
              <path d="M155.5,124.62H425.41a2.05,2.05,0,0,1,2.05,2.05V128a2.05,2.05,0,0,1-2.05,2.05H155.5a2.06,2.06,0,0,1-2.06-2.06v-1.37A2.06,2.06,0,0,1,155.5,124.62Z" fill="#e1e8ee"/>
              <path d="M155.5,135.58H402.58a2.05,2.05,0,0,1,2.05,2.05V139a2.06,2.06,0,0,1-2.06,2.06H155.5a2.06,2.06,0,0,1-2.06-2.06v-1.37A2.06,2.06,0,0,1,155.5,135.58Z" fill="#e1e8ee"/>
              <path d="M155.5,146.53H379.74a2.05,2.05,0,0,1,2.05,2.05V150a2.06,2.06,0,0,1-2.06,2.06H155.5a2.06,2.06,0,0,1-2.06-2.06v-1.37A2.06,2.06,0,0,1,155.5,146.53Z" fill="#e1e8ee"/>
            </g>
            <g>
              <circle cx="468.57" cy="127.36" r="8.22" fill="#a7b9c8"/>
              <circle cx="512.41" cy="127.36" r="8.22" fill="#a7b9c8"/>
              <circle cx="490.49" cy="127.36" r="8.22" fill="#a7b9c8"/>
              <circle cx="534.33" cy="127.36" r="8.22" fill="#a7b9c8"/>
              <circle cx="556.25" cy="127.36" r="8.22" fill="#a7b9c8"/>
            </g>
          </g>
          <g>
            <ellipse cx="80.15" cy="218.43" rx="30.83" ry="30.81" fill="url(#linear-gradient-2)"/>
            <g>
              <rect x="151.39" y="193.78" width="78.78" height="10.96" rx="2.06" fill="#e1e8ee"/>
              <path d="M153.45,215.69H423.35a2.05,2.05,0,0,1,2.05,2.05v1.37a2.06,2.06,0,0,1-2.06,2.06H153.45a2.06,2.06,0,0,1-2.06-2.06v-1.37a2.06,2.06,0,0,1,2.06-2.06Z" fill="#e1e8ee"/>
              <path d="M153.45,226.64H400.52a2.05,2.05,0,0,1,2.05,2.05v1.37a2.06,2.06,0,0,1-2.06,2.06H153.45a2.06,2.06,0,0,1-2.06-2.06V228.7a2.06,2.06,0,0,1,2.06-2.06Z" fill="#e1e8ee"/>
              <path d="M153.45,237.6H377.68a2.05,2.05,0,0,1,2.05,2.05V241a2.06,2.06,0,0,1-2.06,2.06H153.45a2.06,2.06,0,0,1-2.06-2.06v-1.37A2.06,2.06,0,0,1,153.45,237.6Z" fill="#e1e8ee"/>
            </g>
            <g>
              <circle cx="466.51" cy="218.43" r="8.22" fill="#a7b9c8"/>
              <circle cx="510.35" cy="218.43" r="8.22" fill="#a7b9c8"/>
              <circle cx="488.43" cy="218.43" r="8.22" fill="#a7b9c8"/>
            </g>
          </g>
          <g>
            <ellipse cx="80.15" cy="316.34" rx="30.83" ry="30.81" fill="url(#linear-gradient-3)"/>
            <g>
              <rect x="151.39" y="291.69" width="78.78" height="10.96" rx="2.06" fill="#e1e8ee"/>
              <path d="M153.45,313.6H423.35a2.05,2.05,0,0,1,2.05,2.05V317a2.06,2.06,0,0,1-2.06,2.06H153.45a2.06,2.06,0,0,1-2.06-2.06v-1.37A2.06,2.06,0,0,1,153.45,313.6Z" fill="#e1e8ee"/>
              <path d="M153.45,324.56H400.52a2.05,2.05,0,0,1,2.05,2.05V328a2.06,2.06,0,0,1-2.06,2.06H153.45a2.06,2.06,0,0,1-2.06-2.06v-1.37a2.06,2.06,0,0,1,2.06-2.06Z" fill="#e1e8ee"/>
              <path d="M153.45,335.51H377.68a2.05,2.05,0,0,1,2.05,2.05v1.37a2.06,2.06,0,0,1-2.06,2.06H153.45a2.06,2.06,0,0,1-2.06-2.06v-1.37A2.06,2.06,0,0,1,153.45,335.51Z" fill="#e1e8ee"/>
            </g>
            <g>
              <circle cx="466.51" cy="316.34" r="8.22" fill="#a7b9c8"/>
              <circle cx="510.35" cy="316.34" r="8.22" fill="#a7b9c8"/>
              <circle cx="488.43" cy="316.34" r="8.22" fill="#a7b9c8"/>
              <circle cx="532.28" cy="316.34" r="8.22" fill="#a7b9c8"/>
            </g>
          </g>
        </g>
        <g>
          <path id="i" d="M488.48,142.42H684.31A11.7,11.7,0,0,1,696,154.11v327.2A11.69,11.69,0,0,1,684.31,493H488.48a11.69,11.69,0,0,1-11.69-11.69V154.11A11.69,11.69,0,0,1,488.48,142.42Z" fill-rule="evenodd"/>
          <path id="i-2" data-name="i" d="M488.48,142.42H684.31A11.7,11.7,0,0,1,696,154.11v327.2A11.69,11.69,0,0,1,684.31,493H488.48a11.69,11.69,0,0,1-11.69-11.69V154.11A11.69,11.69,0,0,1,488.48,142.42Z" fill="#fff" fill-rule="evenodd"/>
        </g>
        <g>
          <path id="k" d="M488.48,142.42H684.31A11.7,11.7,0,0,1,696,154.11v25.71H476.79V154.11A11.69,11.69,0,0,1,488.48,142.42Z" fill-rule="evenodd"/>
          <path id="k-2" data-name="k" d="M488.48,142.42H684.31A11.7,11.7,0,0,1,696,154.11v25.71H476.79V154.11A11.69,11.69,0,0,1,488.48,142.42Z" fill="#00252e" fill-rule="evenodd"/>
        </g>
        <g>
          <rect x="498.8" y="155.28" width="71.24" height="14.02" rx="2.92" fill="#e1e8ee"/>
          <g>
            <path d="M655.08,156.45h16.37a1.17,1.17,0,0,1,1.17,1.16h0a1.17,1.17,0,0,1-1.17,1.17H655.08a1.17,1.17,0,0,1-1.17-1.17h0A1.16,1.16,0,0,1,655.08,156.45Z" fill="#d8d8d8" fill-rule="evenodd"/>
            <path d="M655.08,161.12h16.37a1.17,1.17,0,0,1,1.17,1.17h0a1.18,1.18,0,0,1-1.17,1.17H655.08a1.17,1.17,0,0,1-1.17-1.17h0A1.17,1.17,0,0,1,655.08,161.12Z" fill="#d8d8d8" fill-rule="evenodd"/>
            <path d="M655.08,165.79h16.37a1.18,1.18,0,0,1,1.17,1.17h0a1.17,1.17,0,0,1-1.17,1.17H655.08a1.17,1.17,0,0,1-1.17-1.17h0A1.17,1.17,0,0,1,655.08,165.79Z" fill="#d8d8d8" fill-rule="evenodd"/>
          </g>
        </g>
        <g>
          <ellipse cx="508.99" cy="226.64" rx="10.28" ry="10.27" fill="url(#linear-gradient-4)"/>
          <g>
            <rect x="530.22" y="218.43" width="39.39" height="3.65" rx="0.63" fill="#e1e8ee"/>
            <rect x="530.22" y="225.73" width="137.01" height="1.83" rx="0.63" fill="#e1e8ee"/>
            <rect x="530.22" y="229.38" width="125.59" height="1.83" rx="0.63" fill="#e1e8ee"/>
            <rect x="530.22" y="233.03" width="114.17" height="1.83" rx="0.63" fill="#e1e8ee"/>
          </g>
        </g>
        <g>
          <ellipse cx="508.99" cy="321.14" rx="10.28" ry="10.27" fill="url(#linear-gradient-5)"/>
          <g>
            <rect x="530.22" y="312.92" width="39.39" height="3.65" rx="0.63" fill="#e1e8ee"/>
            <rect x="530.22" y="320.22" width="137.01" height="1.83" rx="0.63" fill="#e1e8ee"/>
            <rect x="530.22" y="323.87" width="125.59" height="1.83" rx="0.63" fill="#e1e8ee"/>
            <rect x="530.22" y="327.53" width="114.17" height="1.83" rx="0.63" fill="#e1e8ee"/>
          </g>
        </g>
        <g>
          <g>
            <rect x="530.22" y="249.92" width="39.39" height="3.65" rx="0.63" fill="#e1e8ee"/>
            <rect x="530.22" y="257.23" width="137.01" height="1.83" rx="0.63" fill="#e1e8ee"/>
            <rect x="530.22" y="260.88" width="125.59" height="1.83" rx="0.63" fill="#e1e8ee"/>
            <rect x="530.22" y="264.53" width="114.17" height="1.83" rx="0.63" fill="#e1e8ee"/>
          </g>
          <ellipse cx="508.99" cy="258.14" rx="10.28" ry="10.27" fill="url(#linear-gradient-6)"/>
        </g>
        <g>
          <g>
            <rect x="530.22" y="344.41" width="39.39" height="3.65" rx="0.63" fill="#e1e8ee"/>
            <rect x="530.22" y="351.72" width="137.01" height="1.83" rx="0.63" fill="#e1e8ee"/>
            <rect x="530.22" y="355.37" width="125.59" height="1.83" rx="0.63" fill="#e1e8ee"/>
            <rect x="530.22" y="359.02" width="114.17" height="1.83" rx="0.63" fill="#e1e8ee"/>
          </g>
          <ellipse cx="508.99" cy="352.63" rx="10.28" ry="10.27" fill="url(#linear-gradient-7)"/>
        </g>
        <g>
          <g>
            <rect x="530.22" y="281.42" width="39.39" height="3.65" rx="0.63" fill="#e1e8ee"/>
            <rect x="530.22" y="288.73" width="137.01" height="1.83" rx="0.63" fill="#e1e8ee"/>
            <rect x="530.22" y="292.38" width="125.59" height="1.83" rx="0.63" fill="#e1e8ee"/>
            <rect x="530.22" y="296.03" width="114.17" height="1.83" rx="0.63" fill="#e1e8ee"/>
          </g>
          <ellipse cx="508.99" cy="289.64" rx="10.28" ry="10.27" fill="url(#linear-gradient-8)"/>
        </g>
        <g>
          <g>
            <rect x="530.22" y="375.91" width="39.39" height="3.65" rx="0.63" fill="#e1e8ee"/>
            <rect x="530.22" y="383.22" width="137.01" height="1.83" rx="0.63" fill="#e1e8ee"/>
            <rect x="530.22" y="386.87" width="125.59" height="1.83" rx="0.63" fill="#e1e8ee"/>
            <rect x="530.22" y="390.52" width="114.17" height="1.83" rx="0.63" fill="#e1e8ee"/>
          </g>
          <ellipse cx="508.99" cy="384.13" rx="10.28" ry="10.27" fill="url(#linear-gradient-9)"/>
        </g>
        <g>
          <ellipse cx="508.99" cy="415.63" rx="10.28" ry="10.27" fill="url(#linear-gradient-10)"/>
          <g>
            <rect x="530.22" y="407.41" width="39.39" height="3.65" rx="0.63" fill="#e1e8ee"/>
            <rect x="530.22" y="414.71" width="137.01" height="1.83" rx="0.63" fill="#e1e8ee"/>
            <rect x="530.22" y="418.37" width="125.59" height="1.83" rx="0.63" fill="#e1e8ee"/>
            <rect x="530.22" y="422.02" width="114.17" height="1.83" rx="0.63" fill="#e1e8ee"/>
          </g>
        </g>
        <g>
          <g>
            <rect x="530.22" y="438.91" width="39.39" height="3.65" rx="0.63" fill="#e1e8ee"/>
            <rect x="530.22" y="446.21" width="137.01" height="1.83" rx="0.63" fill="#e1e8ee"/>
            <rect x="530.22" y="449.86" width="125.59" height="1.83" rx="0.63" fill="#e1e8ee"/>
            <rect x="530.22" y="453.51" width="114.17" height="1.83" rx="0.63" fill="#e1e8ee"/>
          </g>
          <ellipse cx="508.99" cy="447.12" rx="10.28" ry="10.27" fill="url(#linear-gradient-11)"/>
        </g>
      </g>
    </g>
  </g>
</svg>
