<svg xmlns="http://www.w3.org/2000/svg" width="187.16" height="30" viewBox="0 0 187.16 30">
	<path d="M21.84.5c-6,0-12.33,1.36-18.69,3.12A3.23,3.23,0,0,0,1.14,5,5.12,5.12,0,0,0,.5,6.85,49.51,49.51,0,0,0,.09,17.46,5.37,5.37,0,0,0,.65,20a2.88,2.88,0,0,0,2,1.16c1.1.16,2.2.29,3.3.41l-.24,6.79a1.46,1.46,0,0,0,.56,1.25,1.81,1.81,0,0,0,1,.35,1.91,1.91,0,0,0,1.85-1A24.56,24.56,0,0,1,14,22a152.2,152.2,0,0,0,16-.58,4.05,4.05,0,0,0,3.65-2.92C34.72,15.18,34.89,11.1,35,7a5.26,5.26,0,0,0-1.53-4.09A7.93,7.93,0,0,0,30.3,1.55a40.38,40.38,0,0,0-8.46-1Zm8,2.59a7.07,7.07,0,0,1,2.58,1A3.3,3.3,0,0,1,33.41,7c-.12,4-.31,7.89-1.21,10.83a2.65,2.65,0,0,1-2.35,2,150.57,150.57,0,0,1-16.18.57.82.82,0,0,0-.59.24A26.39,26.39,0,0,0,7.67,28.2a.29.29,0,0,1-.25.14.14.14,0,0,1-.11-.12l.25-7.37A.83.83,0,0,0,6.85,20c-1.32-.12-2.64-.29-3.95-.48-.57-.09-.78-.24-.93-.47a3.86,3.86,0,0,1-.29-1.67A48.75,48.75,0,0,1,2.06,7.18,4.83,4.83,0,0,1,2.49,5.8a1.82,1.82,0,0,1,1.28-.7c6.22-1.72,12.3-3,18-3A39.34,39.34,0,0,1,29.88,3.09ZM8.42,9.41a2.75,2.75,0,0,0-.12,3.35,2.31,2.31,0,0,0,1.54,1,2.87,2.87,0,0,0,2-.67,2.78,2.78,0,0,0,.36-3.68,2.2,2.2,0,0,0-1.73-1A2.56,2.56,0,0,0,8.42,9.41Zm9.26-.84a2.57,2.57,0,0,0-2,1.26,2.63,2.63,0,0,0-.37,2.53c.75,1.72,3.34,1.7,4.37,0a2.4,2.4,0,0,0,0-2.38,2.35,2.35,0,0,0-1.66-1.34Zm7.51.16a2.67,2.67,0,0,0-.79.09,2.49,2.49,0,0,0-1.77,2.68,2.62,2.62,0,0,0,.95,1.8,2.68,2.68,0,0,0,2.25.49A2.4,2.4,0,0,0,27.64,12a2.48,2.48,0,0,0-.32-2.2A2.7,2.7,0,0,0,25.19,8.73ZM10.38,10a.53.53,0,0,1,.49.29,1.27,1.27,0,0,1-.09,1.56.89.89,0,0,1-.73.31.67.67,0,0,1-.44-.32A1.14,1.14,0,0,1,10.38,10Zm7.41.17a1.42,1.42,0,0,1,.52.5.8.8,0,0,1,0,.83,1,1,0,0,1-1.56.23,1.53,1.53,0,0,1,.25-1,1,1,0,0,1,.75-.53Zm8.25.59a1.33,1.33,0,0,1,.07.84.74.74,0,0,1-.61.64,1,1,0,0,1-.93-.16,1.11,1.11,0,0,1-.36-.73c-.07-.71.19-.88.6-1A1.23,1.23,0,0,1,26,10.76Zm19-7a.92.92,0,0,1,.22-.55.69.69,0,0,1,.55-.24H51.1a.91.91,0,0,1,.56.22.7.7,0,0,1,.29.57v8.51h8.92V3.72a.78.78,0,0,1,.78-.79h5.29a1.11,1.11,0,0,1,.63.18.66.66,0,0,1,.27.57V28.8a.72.72,0,0,1-.24.59.91.91,0,0,1-.61.2H61.68a.85.85,0,0,1-.59-.2.74.74,0,0,1-.22-.59V18.6H52V28.8a.69.69,0,0,1-.25.58.94.94,0,0,1-.65.21H45.77c-.5,0-.76-.24-.77-.7ZM94.12,29.28a1,1,0,0,1-.5.25,2,2,0,0,1-.49.06H90.42a1.22,1.22,0,0,1-.56-.12,1.16,1.16,0,0,1-.39-.31,2.07,2.07,0,0,1-.27-.45,2.47,2.47,0,0,1-.18-.52l-.56-2.3a9.34,9.34,0,0,1-.78,1.27,6.77,6.77,0,0,1-1.3,1.32,7.54,7.54,0,0,1-1.88,1.05A7,7,0,0,1,82,30a8.65,8.65,0,0,1-3.71-.79A8.52,8.52,0,0,1,75.42,27a9.86,9.86,0,0,1-1.82-3.18A11.47,11.47,0,0,1,73,19.93V8.17a1.54,1.54,0,0,1,.3-1,1.13,1.13,0,0,1,.94-.35h4.15a1.66,1.66,0,0,1,1.06.26,1.36,1.36,0,0,1,.28,1V19.75A3.24,3.24,0,0,0,80,21.21a4.35,4.35,0,0,0,2.23,2.06,3.84,3.84,0,0,0,1.48.3,3.36,3.36,0,0,0,1.34-.3,5.2,5.2,0,0,0,1.27-.82,4.53,4.53,0,0,0,1-1.2,3,3,0,0,0,.37-1.46V8.12a1.62,1.62,0,0,1,.12-.61A.9.9,0,0,1,88.16,7a1.55,1.55,0,0,1,.44-.2,1.65,1.65,0,0,1,.47,0h4.06a1.43,1.43,0,0,1,1.11.37,1.44,1.44,0,0,1,.35,1V28.26a1.37,1.37,0,0,1-.16.63,1.13,1.13,0,0,1-.42.45ZM115,26.81l-1.07,1a12.07,12.07,0,0,1-1.28,1,7.51,7.51,0,0,1-1.51.8,5,5,0,0,1-1.74.31,10.94,10.94,0,0,1-4.5-.91,10.74,10.74,0,0,1-3.53-2.51A11.62,11.62,0,0,1,99,22.84a12.65,12.65,0,0,1-.84-4.63A12.68,12.68,0,0,1,99,13.56a11.69,11.69,0,0,1,2.32-3.73,10.86,10.86,0,0,1,3.53-2.5,11.09,11.09,0,0,1,4.5-.9,5.26,5.26,0,0,1,1.8.29,6.25,6.25,0,0,1,1.49.73,8.11,8.11,0,0,1,1.24,1c.38.37.74.74,1.07,1.1V1.36a1.4,1.4,0,0,1,.35-1,1.3,1.3,0,0,1,1-.4h4a1.48,1.48,0,0,1,.49.1,1.64,1.64,0,0,1,.48.28,1.47,1.47,0,0,1,.35.43,1.14,1.14,0,0,1,.13.55V28.2c0,.93-.48,1.39-1.45,1.39h-3.52a1.34,1.34,0,0,1-.55-.09,1,1,0,0,1-.34-.26,1.82,1.82,0,0,1-.24-.43c-.07-.17-.16-.38-.27-.61Zm-10.32-8.6a6.41,6.41,0,0,0,.37,2.21,5.06,5.06,0,0,0,1,1.79,5,5,0,0,0,3.76,1.63,5.62,5.62,0,0,0,2.17-.41,5.49,5.49,0,0,0,1.77-1.14A5.9,5.9,0,0,0,115,20.58a5.78,5.78,0,0,0,.51-2.12v-.25a5.59,5.59,0,0,0-.43-2.19,5.84,5.84,0,0,0-1.19-1.83,5.5,5.5,0,0,0-1.8-1.25,5.38,5.38,0,0,0-2.24-.46,4.87,4.87,0,0,0-3.76,1.71A5.39,5.39,0,0,0,105,16,6.26,6.26,0,0,0,104.64,18.21Zm38.06,8.6-1.07,1a12.07,12.07,0,0,1-1.28,1,7.51,7.51,0,0,1-1.51.8,5,5,0,0,1-1.74.31,10.94,10.94,0,0,1-4.5-.91,10.78,10.78,0,0,1-3.54-2.51,11.43,11.43,0,0,1-2.31-3.74,12.65,12.65,0,0,1-.84-4.63,12.68,12.68,0,0,1,.84-4.65,11.55,11.55,0,0,1,2.31-3.73,10.9,10.9,0,0,1,3.54-2.5,11.09,11.09,0,0,1,4.5-.9,5.44,5.44,0,0,1,1.8.29,6.44,6.44,0,0,1,1.49.73,8.11,8.11,0,0,1,1.24,1c.37.37.73.74,1.07,1.1V1.36a1.4,1.4,0,0,1,.35-1,1.3,1.3,0,0,1,1-.4h4a1.58,1.58,0,0,1,.49.1,1.72,1.72,0,0,1,.47.28,1.36,1.36,0,0,1,.36.43,1.14,1.14,0,0,1,.13.55V28.2c0,.93-.49,1.39-1.45,1.39h-3.52a1.39,1.39,0,0,1-.56-.09.93.93,0,0,1-.33-.26,1.82,1.82,0,0,1-.24-.43c-.08-.17-.16-.38-.27-.61Zm-10.33-8.6a6.65,6.65,0,0,0,.37,2.21,5.38,5.38,0,0,0,1,1.79,5,5,0,0,0,3.77,1.63,5.5,5.5,0,0,0,2.16-.41,5.58,5.58,0,0,0,1.78-1.14,5.9,5.9,0,0,0,1.21-1.71,5.78,5.78,0,0,0,.51-2.12v-.25a5.78,5.78,0,0,0-1.63-4,5.56,5.56,0,0,0-1.79-1.25,5.42,5.42,0,0,0-2.24-.46,4.87,4.87,0,0,0-3.77,1.71,5.85,5.85,0,0,0-1,1.83,6.76,6.76,0,0,0-.37,2.19Zm22-16.83a1.63,1.63,0,0,1,.28-1,1.15,1.15,0,0,1,1-.39H160a.83.83,0,0,1,.38.1,1,1,0,0,1,.36.28,1.35,1.35,0,0,1,.29.43,1.23,1.23,0,0,1,.12.55V28.2a1.32,1.32,0,0,1-.39,1,1.44,1.44,0,0,1-1,.35h-4.17a1.22,1.22,0,0,1-1-.35,1.61,1.61,0,0,1-.29-1ZM184.6,26.86A12,12,0,0,1,181,29.13a10.71,10.71,0,0,1-4.18.82,12.2,12.2,0,0,1-8.49-3.39,11.66,11.66,0,0,1-2.62-3.74,11.25,11.25,0,0,1-1-4.69,12.25,12.25,0,0,1,1.48-5.83A11.82,11.82,0,0,1,168,9.92a11.06,11.06,0,0,1,5-3.06,10.92,10.92,0,0,1,3.11-.43,10.77,10.77,0,0,1,2.89.39,11.56,11.56,0,0,1,6.64,5,10.46,10.46,0,0,1,1.14,2.55,9.65,9.65,0,0,1,.4,2.79c0,.62,0,1.13,0,1.53a1.74,1.74,0,0,1-.28.94,1.38,1.38,0,0,1-.84.48,8,8,0,0,1-1.71.14H171.38a4.54,4.54,0,0,0,.73,1.92,4.48,4.48,0,0,0,1.27,1.23,4.91,4.91,0,0,0,1.53.65,5.92,5.92,0,0,0,1.52.2,6.88,6.88,0,0,0,1.33-.13,10.32,10.32,0,0,0,1.32-.36,7.59,7.59,0,0,0,1.17-.52,4.35,4.35,0,0,0,.85-.62,3.32,3.32,0,0,1,.49-.35.86.86,0,0,1,.44-.12.92.92,0,0,1,.48.16,4.08,4.08,0,0,1,.54.47L185,25a1.2,1.2,0,0,1,.26.43,1.58,1.58,0,0,1,0,.38.92.92,0,0,1-.2.62,2.23,2.23,0,0,1-.46.46ZM176,11.9a3.51,3.51,0,0,0-1.35.28,4.89,4.89,0,0,0-1.23.75,6.52,6.52,0,0,0-1,1.06,6.15,6.15,0,0,0-.74,1.2h9.18A12.25,12.25,0,0,0,180,13.9a5.9,5.9,0,0,0-1-1.05,4.23,4.23,0,0,0-1.29-.69,5.15,5.15,0,0,0-1.7-.26Z" fill="#fff"/>
</svg>